<svg width="40" height="40" viewBox="0 0 40 40" fill="none" xmlns="http://www.w3.org/2000/svg">
<g clip-path="url(#clip0_11873_5768)">
<path d="M2.49952 2.72313C-0.643815 5.98813 -0.000481702 9.45646 -0.000481702 19.9931C-0.000481702 28.7431 -1.52715 37.5148 6.46285 39.5798C8.95785 40.2215 31.0645 40.2215 33.5562 39.5765C36.8829 38.7181 39.5895 36.0198 39.9595 31.3148C40.0112 30.6581 40.0112 9.33979 39.9579 8.66979C39.5645 3.65813 36.4795 0.769794 32.4145 0.184794C31.4829 0.0497941 31.2962 0.00979412 26.5162 0.00146078C9.56118 0.00979412 5.84452 -0.745206 2.49952 2.72313Z" fill="url(#paint0_linear_11873_5768)"/>
<path d="M19.9977 5.233C13.946 5.233 8.19933 4.69467 6.00433 10.328C5.09766 12.6547 5.22933 15.6763 5.22933 20.003C5.22933 23.7997 5.10766 27.368 6.00433 29.6763C8.19433 35.313 13.9877 34.773 19.9943 34.773C25.7893 34.773 31.7643 35.3763 33.986 29.6763C34.8943 27.3263 34.761 24.3497 34.761 20.003C34.761 14.233 35.0793 10.508 32.281 7.71134C29.4477 4.878 25.616 5.233 19.991 5.233H19.9977ZM18.6743 7.89467C31.2977 7.87467 32.9043 6.47134 32.0177 25.9663C31.7027 32.8613 26.4527 32.1047 19.9993 32.1047C8.23266 32.1047 7.89433 31.768 7.89433 19.9963C7.89433 8.088 8.82766 7.90134 18.6743 7.89134V7.89467ZM27.881 10.3463C26.9027 10.3463 26.1093 11.1397 26.1093 12.118C26.1093 13.0963 26.9027 13.8897 27.881 13.8897C28.8593 13.8897 29.6527 13.0963 29.6527 12.118C29.6527 11.1397 28.8593 10.3463 27.881 10.3463ZM19.9977 12.418C15.8093 12.418 12.4143 15.8147 12.4143 20.003C12.4143 24.1913 15.8093 27.5863 19.9977 27.5863C24.186 27.5863 27.5793 24.1913 27.5793 20.003C27.5793 15.8147 24.186 12.418 19.9977 12.418ZM19.9977 15.0797C26.506 15.0797 26.5143 24.9263 19.9977 24.9263C13.491 24.9263 13.481 15.0797 19.9977 15.0797Z" fill="white"/>
</g>
<defs>
<linearGradient id="paint0_linear_11873_5768" x1="2.57622" y1="37.4466" x2="39.752" y2="5.27142" gradientUnits="userSpaceOnUse">
<stop stop-color="#FFDD55"/>
<stop offset="0.5" stop-color="#FF543E"/>
<stop offset="1" stop-color="#C837AB"/>
</linearGradient>
<clipPath id="clip0_11873_5768">
<rect width="40" height="40" fill="white"/>
</clipPath>
</defs>
</svg>
