<svg width="258" height="30" viewBox="0 0 258 30" fill="none" xmlns="http://www.w3.org/2000/svg">
<path d="M55.1932 14C55.0838 13.6652 54.9396 13.3653 54.7607 13.1001C54.585 12.8317 54.3745 12.603 54.1293 12.4141C53.8873 12.2251 53.6122 12.081 53.304 11.9815C52.9957 11.8821 52.6577 11.8324 52.2898 11.8324C51.6866 11.8324 51.138 11.9882 50.6442 12.2997C50.1503 12.6113 49.7576 13.0703 49.4659 13.6768C49.1742 14.2834 49.0284 15.0275 49.0284 15.9091C49.0284 16.7907 49.1759 17.5348 49.4709 18.1413C49.7659 18.7479 50.1652 19.2069 50.669 19.5185C51.1728 19.83 51.7396 19.9858 52.3693 19.9858C52.9527 19.9858 53.4664 19.8615 53.9105 19.6129C54.358 19.361 54.706 19.0064 54.9545 18.549C55.2064 18.0883 55.3324 17.5464 55.3324 16.9233L55.7102 17.0028H52.6477V15.9091H56.5256V17.0028C56.5256 17.8414 56.3466 18.5705 55.9886 19.1903C55.634 19.8101 55.1435 20.2907 54.517 20.6321C53.8939 20.9702 53.178 21.1392 52.3693 21.1392C51.4678 21.1392 50.6757 20.9271 49.9929 20.5028C49.3134 20.0786 48.7831 19.4754 48.402 18.6932C48.0241 17.911 47.8352 16.983 47.8352 15.9091C47.8352 15.1037 47.9429 14.3795 48.1584 13.7365C48.3771 13.0902 48.6854 12.54 49.0831 12.0859C49.4808 11.6319 49.9515 11.2839 50.495 11.0419C51.0386 10.8 51.6368 10.679 52.2898 10.679C52.8267 10.679 53.3272 10.7602 53.7912 10.9226C54.2585 11.0817 54.6745 11.3087 55.0391 11.6037C55.407 11.8954 55.7135 12.245 55.9588 12.6527C56.2041 13.0571 56.3731 13.5062 56.4659 14H55.1932ZM58.4782 21V13.3636H59.6117V14.517H59.6912C59.8304 14.1392 60.0823 13.8326 60.4469 13.5973C60.8115 13.362 61.2225 13.2443 61.6799 13.2443C61.766 13.2443 61.8738 13.246 62.003 13.2493C62.1323 13.2526 62.2301 13.2576 62.2963 13.2642V14.4574C62.2566 14.4474 62.1654 14.4325 62.0229 14.4126C61.8837 14.3894 61.7362 14.3778 61.5804 14.3778C61.2092 14.3778 60.8778 14.4557 60.5861 14.6115C60.2978 14.764 60.0691 14.9761 59.9 15.2479C59.7343 15.5163 59.6515 15.8229 59.6515 16.1676V21H58.4782ZM66.557 21.1591C65.8676 21.1591 65.2627 20.995 64.7424 20.6669C64.2253 20.3388 63.821 19.8797 63.5293 19.2898C63.2409 18.6998 63.0968 18.0104 63.0968 17.2216C63.0968 16.4261 63.2409 15.7318 63.5293 15.1385C63.821 14.5452 64.2253 14.0845 64.7424 13.7564C65.2627 13.4283 65.8676 13.2642 66.557 13.2642C67.2464 13.2642 67.8496 13.4283 68.3667 13.7564C68.887 14.0845 69.2914 14.5452 69.5797 15.1385C69.8714 15.7318 70.0172 16.4261 70.0172 17.2216C70.0172 18.0104 69.8714 18.6998 69.5797 19.2898C69.2914 19.8797 68.887 20.3388 68.3667 20.6669C67.8496 20.995 67.2464 21.1591 66.557 21.1591ZM66.557 20.1051C67.0807 20.1051 67.5115 19.9709 67.8496 19.7024C68.1877 19.4339 68.4379 19.081 68.6003 18.6435C68.7627 18.206 68.8439 17.732 68.8439 17.2216C68.8439 16.7112 68.7627 16.2356 68.6003 15.7947C68.4379 15.3539 68.1877 14.9976 67.8496 14.7259C67.5115 14.4541 67.0807 14.3182 66.557 14.3182C66.0333 14.3182 65.6025 14.4541 65.2644 14.7259C64.9263 14.9976 64.6761 15.3539 64.5137 15.7947C64.3513 16.2356 64.2701 16.7112 64.2701 17.2216C64.2701 17.732 64.3513 18.206 64.5137 18.6435C64.6761 19.081 64.9263 19.4339 65.2644 19.7024C65.6025 19.9709 66.0333 20.1051 66.557 20.1051ZM73.2786 21L70.9519 13.3636H72.1848L73.8354 19.2102H73.915L75.5456 13.3636H76.7985L78.4093 19.1903H78.4888L80.1394 13.3636H81.3723L79.0456 21H77.8922L76.2218 15.1335H76.1025L74.432 21H73.2786ZM86.2445 13.3636V14.358H82.2871V13.3636H86.2445ZM83.4405 11.5341H84.6138V18.8125C84.6138 19.1439 84.6619 19.3925 84.758 19.5582C84.8574 19.7206 84.9834 19.83 85.1358 19.8864C85.2916 19.9394 85.4557 19.9659 85.628 19.9659C85.7573 19.9659 85.8633 19.9593 85.9462 19.946C86.0291 19.9295 86.0953 19.9162 86.1451 19.9062L86.3837 20.9602C86.3042 20.9901 86.1931 21.0199 86.0506 21.0497C85.9081 21.0829 85.7275 21.0994 85.5087 21.0994C85.1773 21.0994 84.8525 21.0282 84.5343 20.8857C84.2194 20.7431 83.9576 20.526 83.7488 20.2344C83.5433 19.9427 83.4405 19.5748 83.4405 19.1307V11.5341ZM89.3468 16.4062V21H88.1735V10.8182H89.3468V14.5568H89.4462C89.6252 14.1624 89.8936 13.8492 90.2516 13.6172C90.6129 13.3819 91.0935 13.2642 91.6934 13.2642C92.2137 13.2642 92.6694 13.3686 93.0605 13.5774C93.4516 13.7829 93.7549 14.0994 93.9703 14.527C94.1891 14.9512 94.2985 15.4915 94.2985 16.1477V21H93.1252V16.2273C93.1252 15.6207 92.9677 15.1518 92.6529 14.8203C92.3413 14.4856 91.9088 14.3182 91.3553 14.3182C90.9708 14.3182 90.6261 14.3994 90.3212 14.5618C90.0196 14.7242 89.781 14.9612 89.6053 15.2727C89.4329 15.5843 89.3468 15.9621 89.3468 16.4062ZM100.542 10.8182H102.013L105.473 19.2699H105.593L109.053 10.8182H110.525V21H109.371V13.2642H109.272L106.09 21H104.976L101.794 13.2642H101.695V21H100.542V10.8182ZM115.085 21.179C114.601 21.179 114.162 21.0878 113.767 20.9055C113.373 20.7199 113.06 20.4531 112.828 20.1051C112.596 19.7538 112.48 19.3295 112.48 18.8324C112.48 18.3949 112.566 18.0402 112.738 17.7685C112.91 17.4934 113.141 17.2779 113.429 17.1222C113.718 16.9664 114.036 16.8504 114.384 16.7741C114.735 16.6946 115.088 16.6316 115.443 16.5852C115.907 16.5256 116.283 16.4808 116.571 16.451C116.863 16.4179 117.075 16.3632 117.208 16.2869C117.343 16.2107 117.411 16.0781 117.411 15.8892V15.8494C117.411 15.3589 117.277 14.9777 117.009 14.706C116.744 14.4342 116.341 14.2983 115.801 14.2983C115.24 14.2983 114.801 14.4209 114.483 14.6662C114.165 14.9115 113.941 15.1733 113.812 15.4517L112.698 15.054C112.897 14.59 113.162 14.2287 113.494 13.9702C113.829 13.7083 114.193 13.526 114.588 13.4233C114.985 13.3172 115.376 13.2642 115.761 13.2642C116.006 13.2642 116.288 13.294 116.606 13.3537C116.927 13.41 117.237 13.5277 117.536 13.7067C117.837 13.8857 118.088 14.1558 118.286 14.517C118.485 14.8783 118.585 15.3622 118.585 15.9688V21H117.411V19.9659H117.352C117.272 20.1316 117.14 20.3089 116.954 20.4979C116.768 20.6868 116.521 20.8475 116.213 20.9801C115.905 21.1127 115.529 21.179 115.085 21.179ZM115.264 20.125C115.728 20.125 116.119 20.0339 116.437 19.8516C116.758 19.6693 117 19.4339 117.163 19.1456C117.329 18.8572 117.411 18.554 117.411 18.2358V17.1619C117.362 17.2216 117.252 17.2763 117.083 17.326C116.918 17.3724 116.725 17.4138 116.507 17.4503C116.291 17.4834 116.081 17.5133 115.875 17.5398C115.673 17.563 115.509 17.5829 115.383 17.5994C115.078 17.6392 114.793 17.7038 114.528 17.7933C114.266 17.8795 114.054 18.0104 113.892 18.1861C113.732 18.3584 113.653 18.5937 113.653 18.892C113.653 19.2997 113.804 19.608 114.105 19.8168C114.41 20.0223 114.796 20.125 115.264 20.125ZM120.726 21V13.3636H121.86V14.517H121.939C122.078 14.1392 122.33 13.8326 122.695 13.5973C123.06 13.362 123.471 13.2443 123.928 13.2443C124.014 13.2443 124.122 13.246 124.251 13.2493C124.38 13.2526 124.478 13.2576 124.544 13.2642V14.4574C124.505 14.4474 124.413 14.4325 124.271 14.4126C124.132 14.3894 123.984 14.3778 123.828 14.3778C123.457 14.3778 123.126 14.4557 122.834 14.6115C122.546 14.764 122.317 14.9761 122.148 15.2479C121.982 15.5163 121.9 15.8229 121.9 16.1676V21H120.726ZM127.029 18.2159L127.009 16.7642H127.248L130.589 13.3636H132.04L128.481 16.9631H128.381L127.029 18.2159ZM125.935 21V10.8182H127.108V21H125.935ZM130.787 21L127.805 17.2216L128.64 16.4062L132.279 21H130.787ZM136.438 21.1591C135.702 21.1591 135.067 20.9967 134.534 20.6719C134.003 20.3438 133.594 19.8864 133.306 19.2997C133.021 18.7098 132.878 18.0237 132.878 17.2415C132.878 16.4593 133.021 15.7699 133.306 15.1733C133.594 14.5734 133.995 14.1061 134.509 13.7713C135.026 13.4332 135.629 13.2642 136.318 13.2642C136.716 13.2642 137.109 13.3305 137.497 13.4631C137.884 13.5956 138.237 13.8111 138.556 14.1094C138.874 14.4044 139.127 14.7955 139.316 15.2827C139.505 15.7699 139.6 16.3698 139.6 17.0824V17.5795H133.713V16.5653H138.406C138.406 16.1345 138.32 15.75 138.148 15.4119C137.979 15.0739 137.737 14.8071 137.422 14.6115C137.11 14.416 136.743 14.3182 136.318 14.3182C135.851 14.3182 135.447 14.4342 135.105 14.6662C134.767 14.8949 134.507 15.1932 134.325 15.5611C134.142 15.929 134.051 16.3234 134.051 16.7443V17.4205C134.051 17.9972 134.151 18.486 134.35 18.8871C134.552 19.2848 134.832 19.5881 135.19 19.7969C135.548 20.0024 135.964 20.1051 136.438 20.1051C136.746 20.1051 137.024 20.062 137.273 19.9759C137.525 19.8864 137.742 19.7538 137.924 19.5781C138.106 19.3991 138.247 19.1771 138.347 18.9119L139.48 19.2301C139.361 19.6146 139.16 19.9527 138.879 20.2443C138.597 20.5327 138.249 20.758 137.835 20.9205C137.42 21.0795 136.955 21.1591 136.438 21.1591ZM144.705 13.3636V14.358H140.748V13.3636H144.705ZM141.901 11.5341H143.075V18.8125C143.075 19.1439 143.123 19.3925 143.219 19.5582C143.318 19.7206 143.444 19.83 143.597 19.8864C143.753 19.9394 143.917 19.9659 144.089 19.9659C144.218 19.9659 144.324 19.9593 144.407 19.946C144.49 19.9295 144.556 19.9162 144.606 19.9062L144.845 20.9602C144.765 20.9901 144.654 21.0199 144.512 21.0497C144.369 21.0829 144.188 21.0994 143.97 21.0994C143.638 21.0994 143.313 21.0282 142.995 20.8857C142.68 20.7431 142.419 20.526 142.21 20.2344C142.004 19.9427 141.901 19.5748 141.901 19.1307V11.5341ZM146.47 21V13.3636H147.644V21H146.47ZM147.067 12.0909C146.838 12.0909 146.641 12.013 146.475 11.8572C146.313 11.7015 146.232 11.5142 146.232 11.2955C146.232 11.0767 146.313 10.8894 146.475 10.7337C146.641 10.5779 146.838 10.5 147.067 10.5C147.296 10.5 147.491 10.5779 147.654 10.7337C147.819 10.8894 147.902 11.0767 147.902 11.2955C147.902 11.5142 147.819 11.7015 147.654 11.8572C147.491 12.013 147.296 12.0909 147.067 12.0909ZM150.966 16.4062V21H149.793V13.3636H150.926V14.5568H151.026C151.205 14.169 151.476 13.8575 151.841 13.6222C152.205 13.3835 152.676 13.2642 153.253 13.2642C153.77 13.2642 154.222 13.3703 154.61 13.5824C154.998 13.7912 155.299 14.1094 155.515 14.5369C155.73 14.9612 155.838 15.4981 155.838 16.1477V21H154.665V16.2273C154.665 15.6274 154.509 15.16 154.197 14.8253C153.886 14.4872 153.458 14.3182 152.915 14.3182C152.54 14.3182 152.205 14.3994 151.911 14.5618C151.619 14.7242 151.388 14.9612 151.219 15.2727C151.05 15.5843 150.966 15.9621 150.966 16.4062ZM161.064 24.0227C160.498 24.0227 160.01 23.9498 159.603 23.804C159.195 23.6615 158.855 23.4725 158.584 23.2372C158.315 23.0052 158.101 22.7566 157.942 22.4915L158.877 21.8352C158.983 21.9744 159.117 22.1335 159.28 22.3125C159.442 22.4948 159.664 22.6522 159.946 22.7848C160.231 22.9207 160.604 22.9886 161.064 22.9886C161.681 22.9886 162.19 22.8395 162.591 22.5412C162.992 22.2429 163.192 21.7756 163.192 21.1392V19.5881H163.093C163.007 19.7273 162.884 19.8996 162.725 20.1051C162.569 20.3073 162.344 20.4879 162.049 20.647C161.757 20.8028 161.363 20.8807 160.866 20.8807C160.249 20.8807 159.696 20.7348 159.205 20.4432C158.718 20.1515 158.332 19.7273 158.047 19.1705C157.765 18.6136 157.624 17.9375 157.624 17.142C157.624 16.3598 157.762 15.6787 158.037 15.0987C158.312 14.5154 158.695 14.0646 159.185 13.7464C159.676 13.425 160.242 13.2642 160.885 13.2642C161.383 13.2642 161.777 13.3471 162.069 13.5128C162.364 13.6752 162.589 13.8608 162.745 14.0696C162.904 14.2751 163.027 14.4441 163.113 14.5767H163.232V13.3636H164.366V21.2188C164.366 21.875 164.216 22.4086 163.918 22.8196C163.623 23.2339 163.225 23.5372 162.725 23.7294C162.228 23.925 161.674 24.0227 161.064 24.0227ZM161.025 19.8267C161.495 19.8267 161.893 19.719 162.218 19.5036C162.543 19.2881 162.79 18.9782 162.959 18.5739C163.128 18.1695 163.212 17.6856 163.212 17.1222C163.212 16.572 163.129 16.0864 162.964 15.6655C162.798 15.2446 162.553 14.9148 162.228 14.6761C161.903 14.4375 161.502 14.3182 161.025 14.3182C160.528 14.3182 160.113 14.4441 159.782 14.696C159.454 14.9479 159.207 15.286 159.041 15.7102C158.879 16.1345 158.797 16.6051 158.797 17.1222C158.797 17.6525 158.88 18.1214 159.046 18.5291C159.215 18.9335 159.464 19.2517 159.792 19.4837C160.123 19.7124 160.534 19.8267 161.025 19.8267ZM171.028 21H169.735L173.474 10.8182H174.746L178.485 21H177.192L174.15 12.429H174.07L171.028 21ZM171.505 17.0227H176.715V18.1165H171.505V17.0227ZM182.994 24.0227C182.427 24.0227 181.94 23.9498 181.532 23.804C181.125 23.6615 180.785 23.4725 180.513 23.2372C180.245 23.0052 180.031 22.7566 179.872 22.4915L180.807 21.8352C180.913 21.9744 181.047 22.1335 181.209 22.3125C181.372 22.4948 181.594 22.6522 181.876 22.7848C182.161 22.9207 182.533 22.9886 182.994 22.9886C183.611 22.9886 184.119 22.8395 184.52 22.5412C184.921 22.2429 185.122 21.7756 185.122 21.1392V19.5881H185.023C184.936 19.7273 184.814 19.8996 184.655 20.1051C184.499 20.3073 184.273 20.4879 183.979 20.647C183.687 20.8028 183.292 20.8807 182.795 20.8807C182.179 20.8807 181.625 20.7348 181.135 20.4432C180.648 20.1515 180.261 19.7273 179.976 19.1705C179.695 18.6136 179.554 17.9375 179.554 17.142C179.554 16.3598 179.691 15.6787 179.966 15.0987C180.242 14.5154 180.624 14.0646 181.115 13.7464C181.605 13.425 182.172 13.2642 182.815 13.2642C183.312 13.2642 183.707 13.3471 183.998 13.5128C184.293 13.6752 184.519 13.8608 184.675 14.0696C184.834 14.2751 184.956 14.4441 185.042 14.5767H185.162V13.3636H186.295V21.2188C186.295 21.875 186.146 22.4086 185.848 22.8196C185.553 23.2339 185.155 23.5372 184.655 23.7294C184.157 23.925 183.604 24.0227 182.994 24.0227ZM182.954 19.8267C183.425 19.8267 183.823 19.719 184.148 19.5036C184.472 19.2881 184.719 18.9782 184.888 18.5739C185.057 18.1695 185.142 17.6856 185.142 17.1222C185.142 16.572 185.059 16.0864 184.893 15.6655C184.728 15.2446 184.482 14.9148 184.157 14.6761C183.833 14.4375 183.432 14.3182 182.954 14.3182C182.457 14.3182 182.043 14.4441 181.711 14.696C181.383 14.9479 181.136 15.286 180.971 15.7102C180.808 16.1345 180.727 16.6051 180.727 17.1222C180.727 17.6525 180.81 18.1214 180.976 18.5291C181.145 18.9335 181.393 19.2517 181.721 19.4837C182.053 19.7124 182.464 19.8267 182.954 19.8267ZM191.645 21.1591C190.909 21.1591 190.274 20.9967 189.741 20.6719C189.21 20.3438 188.801 19.8864 188.513 19.2997C188.228 18.7098 188.085 18.0237 188.085 17.2415C188.085 16.4593 188.228 15.7699 188.513 15.1733C188.801 14.5734 189.202 14.1061 189.716 13.7713C190.233 13.4332 190.836 13.2642 191.525 13.2642C191.923 13.2642 192.316 13.3305 192.704 13.4631C193.091 13.5956 193.444 13.8111 193.763 14.1094C194.081 14.4044 194.334 14.7955 194.523 15.2827C194.712 15.7699 194.807 16.3698 194.807 17.0824V17.5795H188.92V16.5653H193.613C193.613 16.1345 193.527 15.75 193.355 15.4119C193.186 15.0739 192.944 14.8071 192.629 14.6115C192.318 14.416 191.95 14.3182 191.525 14.3182C191.058 14.3182 190.654 14.4342 190.312 14.6662C189.974 14.8949 189.714 15.1932 189.532 15.5611C189.349 15.929 189.258 16.3234 189.258 16.7443V17.4205C189.258 17.9972 189.358 18.486 189.557 18.8871C189.759 19.2848 190.039 19.5881 190.397 19.7969C190.755 20.0024 191.171 20.1051 191.645 20.1051C191.953 20.1051 192.231 20.062 192.48 19.9759C192.732 19.8864 192.949 19.7538 193.131 19.5781C193.314 19.3991 193.454 19.1771 193.554 18.9119L194.687 19.2301C194.568 19.6146 194.367 19.9527 194.086 20.2443C193.804 20.5327 193.456 20.758 193.042 20.9205C192.627 21.0795 192.162 21.1591 191.645 21.1591ZM197.765 16.4062V21H196.591V13.3636H197.725V14.5568H197.824C198.003 14.169 198.275 13.8575 198.64 13.6222C199.004 13.3835 199.475 13.2642 200.052 13.2642C200.569 13.2642 201.021 13.3703 201.409 13.5824C201.797 13.7912 202.098 14.1094 202.314 14.5369C202.529 14.9612 202.637 15.4981 202.637 16.1477V21H201.464V16.2273C201.464 15.6274 201.308 15.16 200.996 14.8253C200.685 14.4872 200.257 14.3182 199.714 14.3182C199.339 14.3182 199.004 14.3994 198.709 14.5618C198.418 14.7242 198.187 14.9612 198.018 15.2727C197.849 15.5843 197.765 15.9621 197.765 16.4062ZM207.883 21.1591C207.167 21.1591 206.551 20.9901 206.034 20.652C205.517 20.3139 205.119 19.8482 204.841 19.255C204.562 18.6617 204.423 17.9839 204.423 17.2216C204.423 16.446 204.565 15.7616 204.85 15.1683C205.139 14.5717 205.54 14.1061 206.054 13.7713C206.571 13.4332 207.174 13.2642 207.863 13.2642C208.4 13.2642 208.884 13.3636 209.315 13.5625C209.746 13.7614 210.099 14.0398 210.374 14.3977C210.649 14.7557 210.82 15.1733 210.886 15.6506H209.713C209.623 15.3026 209.424 14.9943 209.116 14.7259C208.811 14.4541 208.4 14.3182 207.883 14.3182C207.426 14.3182 207.025 14.4375 206.68 14.6761C206.339 14.9115 206.072 15.2446 205.88 15.6754C205.691 16.103 205.596 16.6051 205.596 17.1818C205.596 17.7718 205.689 18.2855 205.875 18.723C206.064 19.1605 206.329 19.5002 206.67 19.7422C207.015 19.9841 207.419 20.1051 207.883 20.1051C208.188 20.1051 208.465 20.0521 208.713 19.946C208.962 19.84 209.172 19.6875 209.345 19.4886C209.517 19.2898 209.64 19.0511 209.713 18.7727H210.886C210.82 19.2235 210.656 19.6295 210.394 19.9908C210.135 20.3487 209.792 20.6338 209.365 20.8459C208.94 21.0547 208.447 21.1591 207.883 21.1591ZM213.357 23.8636C213.158 23.8636 212.981 23.8471 212.825 23.8139C212.669 23.7841 212.561 23.7543 212.502 23.7244L212.8 22.6903C213.085 22.7633 213.337 22.7898 213.556 22.7699C213.775 22.75 213.968 22.6522 214.137 22.4766C214.31 22.3042 214.467 22.0241 214.61 21.6364L214.828 21.0398L212.005 13.3636H213.277L215.385 19.4489H215.465L217.573 13.3636H218.846L215.604 22.1136C215.458 22.508 215.278 22.8345 215.062 23.093C214.847 23.3549 214.596 23.5488 214.311 23.6747C214.03 23.8007 213.712 23.8636 213.357 23.8636Z" fill="#161515"/>
<path fill-rule="evenodd" clip-rule="evenodd" d="M30.2897 18.5713C30.8172 17.9332 31.1279 17.1438 31.1769 16.3173C31.2259 15.4908 31.0107 14.6702 30.5623 13.9742C29.3569 12.0414 20.119 6.9326 17.6179 5.58336C15.4859 4.43217 7.06347 0.115199 5.10957 0.00872852C4.34697 -0.042569 3.58625 0.133078 2.92333 0.513523C2.26042 0.893968 1.72498 1.46218 1.38455 2.1465C0.400877 4.07933 1.20686 12.6439 1.40781 14.9423C1.59495 17.0764 2.41474 26.2569 3.21854 27.847C3.54064 28.5007 4.04127 29.0498 4.66249 29.4308C5.28372 29.8117 6.00013 30.009 6.7288 29.9997C8.56715 29.9953 16.7945 26.0345 18.8857 25.0275C20.9432 24.0359 29.0818 20.0681 30.2897 18.5713Z" fill="#EE2A59"/>
<path d="M7.46839 15.5546C7.25309 15.5517 7.03869 15.583 6.8332 15.6473C6.6335 15.7147 6.4439 15.8089 6.26959 15.9274L6.26051 15.6313H4.99267L3.86328 21.0126H5.31681L5.69799 19.1957C5.96833 19.347 6.27549 19.42 6.58501 19.4064C7.11264 19.4399 7.63382 19.2756 8.04689 18.9457C8.44132 18.5481 8.69794 18.0346 8.7791 17.4805C8.82291 17.2829 8.84617 17.0812 8.84851 16.8788C8.86164 16.6973 8.83604 16.5152 8.77339 16.3444C8.71074 16.1736 8.61248 16.0181 8.48513 15.8882C8.20061 15.6524 7.83729 15.5332 7.46839 15.5546ZM12.2305 15.8137C12.1248 15.7281 12.0031 15.6643 11.8726 15.6262C11.7108 15.5776 11.5425 15.5541 11.3736 15.5568C11.0262 15.5545 10.6841 15.6421 10.3805 15.8111C10.0644 15.9854 9.79363 16.2313 9.58981 16.5292C9.36413 16.8568 9.20771 17.227 9.13013 17.6171C9.08857 17.8041 9.06761 17.995 9.06763 18.1866C9.05363 18.3581 9.0791 18.5305 9.14209 18.6906C9.20508 18.8507 9.30392 18.9943 9.43101 19.1103C9.73067 19.3272 10.0963 19.4336 10.4656 19.4112C10.8933 19.4151 11.3119 19.2875 11.6647 19.0456L11.6807 19.3363H12.9511L13.7294 15.6396H12.2654L12.2305 15.8137ZM11.741 18.1215C11.6592 18.1972 11.5624 18.2547 11.4569 18.2905C11.3486 18.3289 11.2345 18.3485 11.1196 18.3483C10.9759 18.3601 10.8319 18.3287 10.7061 18.2581C10.6622 18.2221 10.6278 18.1758 10.6061 18.1233C10.5843 18.0708 10.5759 18.0138 10.5815 17.9573C10.5845 17.844 10.5999 17.7314 10.6276 17.6215C10.773 16.9502 11.071 16.6146 11.5215 16.6146C11.6139 16.6086 11.7064 16.6228 11.7926 16.6564C11.8788 16.69 11.9566 16.7421 12.0205 16.809L11.741 18.1215ZM22.1592 15.9227C21.8243 15.663 21.4067 15.5332 20.9836 15.5571C20.4066 15.5267 19.8382 15.7076 19.3848 16.0659C18.9677 16.439 18.6892 16.9424 18.5948 17.494C18.5581 17.6526 18.5394 17.8148 18.5392 17.9776C18.5274 18.1823 18.5659 18.3867 18.6512 18.5731C18.7365 18.7595 18.8661 18.9222 19.0286 19.047C19.4236 19.3112 19.8937 19.4395 20.3681 19.4126C20.9042 19.433 21.439 19.3457 21.9408 19.1557L22.1279 18.2738C21.9475 18.3392 21.761 18.3866 21.5712 18.4151C21.3591 18.4515 21.1443 18.4701 20.9291 18.4707C20.6416 18.4916 20.353 18.449 20.0839 18.3457C20.0088 18.3048 19.9466 18.2437 19.9046 18.1692C19.8625 18.0948 19.8422 18.01 19.8459 17.9246H22.407L22.548 17.2763C22.5753 17.1532 22.5885 17.0274 22.5872 16.9013C22.594 16.7165 22.559 16.5326 22.4849 16.3631C22.4107 16.1937 22.2994 16.0432 22.1592 15.9227V15.9227ZM21.3416 16.9899L21.3183 17.1219H20.0189C20.0489 16.9385 20.141 16.7709 20.2798 16.6473C20.4418 16.5328 20.6385 16.4779 20.8365 16.4921C21.1828 16.4921 21.3583 16.6149 21.3583 16.8577C21.3554 16.8831 21.3506 16.9296 21.3416 16.9896V16.9899ZM17.0504 15.9227C16.9329 15.8057 16.792 15.7149 16.6369 15.6563C16.4556 15.587 16.2629 15.5525 16.0689 15.5546C15.5378 15.5295 15.0177 15.7119 14.6186 16.0633C14.2169 16.4709 13.9541 16.995 13.8679 17.5608C13.8316 17.7218 13.8129 17.8863 13.8123 18.0514C13.8002 18.2343 13.8292 18.4177 13.8971 18.588C13.965 18.7583 14.0701 18.9113 14.2048 19.0358C14.4973 19.2736 14.8675 19.3948 15.244 19.3759C15.4204 19.3745 15.5958 19.3501 15.7658 19.3032C15.9327 19.2599 16.0944 19.199 16.2484 19.1215L16.2324 19.2073C16.2109 19.2953 16.1656 19.3757 16.1015 19.4398C16.0375 19.5039 15.9571 19.5491 15.869 19.5707C15.5553 19.6598 15.2294 19.6981 14.9035 19.6841H14.0252L13.8105 20.7037H14.9282C15.4348 20.7177 15.9403 20.6489 16.4246 20.4998C16.773 20.3939 17.0839 20.1907 17.3207 19.9141C17.5379 19.633 17.6858 19.3047 17.7524 18.9558L18.4523 15.632H17.1845L17.0504 15.9227ZM16.4577 18.1215C16.281 18.2544 16.0642 18.323 15.8432 18.3159C15.7018 18.3274 15.5601 18.2986 15.4344 18.2327C15.3902 18.1956 15.356 18.148 15.3349 18.0942C15.3139 18.0404 15.3068 17.9822 15.3142 17.9249C15.3171 17.7987 15.3326 17.6731 15.3603 17.5499C15.4005 17.2885 15.5035 17.0407 15.6605 16.8279C15.7345 16.7525 15.8242 16.6943 15.9231 16.6571C16.022 16.62 16.1278 16.6048 16.2331 16.6128C16.3278 16.6093 16.422 16.628 16.5082 16.6673C16.5944 16.7067 16.6702 16.7657 16.7295 16.8395L16.4577 18.1215ZM9.87252 11.4298H9.36378L9.6018 10.3604H11.5601L10.7828 14.0571H9.32091L9.87252 11.4298ZM10.3158 8.8095H11.8955L11.6691 9.86949H10.0898L10.3158 8.8095ZM11.9325 10.3604H13.4177L13.6597 12.5276L14.8189 10.3611H16.3814L14.1477 14.0571H12.6059L11.9325 10.3604ZM16.5169 13.7678C16.354 13.6433 16.2241 13.4807 16.1388 13.2942C16.0535 13.1077 16.0152 12.9031 16.0275 12.6984C16.0277 12.5356 16.0464 12.3734 16.0831 12.2148C16.1769 11.6636 16.4555 11.1607 16.8731 10.7888C17.3268 10.4313 17.895 10.2505 18.4719 10.2801C18.895 10.2565 19.3124 10.3863 19.6475 10.6457C19.7875 10.7655 19.8986 10.9153 19.9726 11.0841C20.0466 11.2528 20.0815 11.4361 20.0748 11.6203C20.0761 11.7463 20.0629 11.8722 20.0356 11.9953L19.8946 12.6435H17.3346C17.3303 12.7291 17.3505 12.814 17.3926 12.8886C17.4347 12.9631 17.4971 13.0242 17.5726 13.0647C17.8409 13.168 18.1288 13.2107 18.4156 13.1897C18.6308 13.1891 18.8456 13.1705 19.0577 13.1341C19.2474 13.1053 19.4339 13.0579 19.6144 12.9928L19.4273 13.8747C18.9262 14.0645 18.3922 14.1518 17.8567 14.1316C17.3823 14.1604 16.9115 14.0325 16.5169 13.7675V13.7678ZM18.8033 11.8514L18.8266 11.7195C18.8357 11.676 18.8411 11.6319 18.843 11.5876C18.843 11.3423 18.6696 11.222 18.3211 11.222C18.1233 11.2089 17.927 11.2637 17.7644 11.3772C17.6257 11.5008 17.5336 11.6683 17.5035 11.8517L18.8033 11.8514ZM6.4571 8.75391H8.0022L7.13008 12.8717H8.93391L8.68681 14.0567H5.33825L6.4571 8.75391ZM7.29542 17.4598C7.25812 17.7102 7.14993 17.9448 6.98364 18.1357C6.91117 18.2047 6.8256 18.2585 6.73197 18.2939C6.63835 18.3293 6.53858 18.3456 6.43857 18.3417C6.34428 18.3496 6.24942 18.3369 6.16053 18.3045C6.07163 18.2721 5.99081 18.2209 5.92365 18.1542L6.19619 16.8442C6.37104 16.6989 6.59243 16.6215 6.81975 16.6262C6.95943 16.614 7.09862 16.6544 7.21002 16.7396C7.25556 16.7891 7.29018 16.8477 7.31165 16.9115C7.33313 16.9753 7.34096 17.0429 7.33466 17.1099C7.33216 17.2275 7.31903 17.3446 7.29542 17.4598V17.4598Z" fill="white"/>
</svg>
