<?xml version="1.0" encoding="utf-8"?><svg xmlns="http://www.w3.org/2000/svg" height="24" width="113.29"><path d="M11.63 13.99v9.7H8.45v-9.63L0 .81h3.7l6.34 10.04L16.35.81h3.73l-8.45 13.18m18.59-4.05l.12-1.9h2.77v15.65h-2.77l-.12-1.9c-.9 1.18-2.55 2.21-5.01 2.21-4.29 0-7.21-3.43-7.21-8.14 0-4.7 2.92-8.13 7.21-8.13 2.46 0 4.11 1.03 5.01 2.21zm-9.14 5.92c0 3.24 1.96 5.43 4.69 5.43 2.09 0 3.36-1.13 4.29-2.65v-5.55c-.93-1.53-2.2-2.65-4.29-2.65-2.73 0-4.69 2.18-4.69 5.42zM37.9 0h3.04v23.69H37.9zm18.62 9.94l.13-1.9h2.76v15.65h-2.76l-.13-1.9c-.9 1.18-2.55 2.21-5.01 2.21-4.29 0-7.21-3.43-7.21-8.14 0-4.7 2.92-8.13 7.21-8.13 2.46 0 4.11 1.03 5.01 2.21zm-9.14 5.92c0 3.24 1.96 5.43 4.69 5.43 2.09 0 3.36-1.13 4.3-2.65v-5.55c-.94-1.53-2.21-2.65-4.3-2.65-2.73 0-4.69 2.18-4.69 5.42zm30.56-1.43v9.26H74.9v-9.07c0-2.37-1.4-3.99-3.61-3.99-1.84 0-3.08 1.12-4.04 2.49v10.57H64.2V8.04h2.77l.12 1.9c.9-1.15 2.55-2.21 4.94-2.21 3.77 0 5.91 2.68 5.91 6.7m8.46-6.39h4.91v2.62H86.4v7.76c0 1.81 1.09 2.8 2.67 2.8 1.06 0 1.77-.21 2.24-.49l.87 2.39c-.74.47-1.83.88-3.36.88-3.32 0-5.47-1.93-5.47-5.55v-7.79H80.3V8.04h3.05V2.75h3.05v5.29" fill-rule="evenodd"/><path d="M96.25 4.99c1.12 0 1.99-.84 1.99-2 0-1.12-.87-1.99-1.99-1.99-1.15 0-1.99.87-1.99 1.99 0 1.16.84 2 1.99 2" fill="#f16522" fill-rule="evenodd"/><path d="M94.7 8.04h3.05v15.65H94.7zm18.09 1.41l-1.3 2.36c-.96-.74-2.21-1.37-3.89-1.37-1.74 0-2.86.53-2.86 1.81s.9 1.59 3.27 2.15c3.63.87 5.28 2.37 5.28 4.74 0 2.96-2.42 4.86-6.25 4.86-2.36 0-4.54-.75-5.94-1.9l1.4-2.43c1.15.99 2.71 1.62 4.57 1.62 1.87 0 3.14-.63 3.14-1.97 0-1.27-.93-1.74-3.32-2.3-3.64-.84-5.2-2.12-5.2-4.58 0-2.96 2.27-4.71 5.91-4.71 2.08 0 3.98.72 5.19 1.72" fill-rule="evenodd"/></svg>